<svg width="29" height="29" viewBox="0 0 29 29" fill="none" xmlns="http://www.w3.org/2000/svg">
<circle cx="14.5" cy="14.5" r="14" fill="white" stroke="#C81059"/>
<path d="M8.926 7.00073H20.0749C21.1341 7.00073 22 7.86693 22 8.92613V20.075C22 21.1339 21.1341 21.9995 20.0749 21.9995H8.926C7.8668 21.9995 7 21.1339 7 20.075V8.92613C7 7.86693 7.8668 7.00073 8.926 7.00073ZM17.9273 8.66658C17.5554 8.66658 17.2521 8.97113 17.2521 9.34283V10.9585C17.2521 11.3304 17.5554 11.6342 17.9273 11.6342H19.6225C19.9938 11.6342 20.2977 11.3304 20.2977 10.9585V9.34283C20.2977 8.97113 19.9938 8.66658 19.6225 8.66658H17.9273ZM20.3042 13.3435H18.9844C19.1096 13.7523 19.1774 14.1833 19.1774 14.6315C19.1774 17.1256 17.0891 19.1485 14.5141 19.1485C11.9397 19.1485 9.8514 17.1256 9.8514 14.6315C9.8514 14.1833 9.9199 13.7523 10.0445 13.3435H8.6675V19.6801C8.6675 20.0083 8.93545 20.2752 9.2633 20.2752H19.7087C20.0368 20.2752 20.3042 20.0083 20.3042 19.6801V13.3435ZM14.5142 11.549C12.8512 11.549 11.5022 12.8554 11.5022 14.4684C11.5022 16.0798 12.8512 17.3872 14.5142 17.3872C16.1781 17.3872 17.5271 16.0798 17.5271 14.4684C17.5271 12.8554 16.1781 11.549 14.5142 11.549Z" fill="#C81059"/>
</svg>
