<svg width="29" height="29" viewBox="0 0 29 29" fill="none" xmlns="http://www.w3.org/2000/svg">
<circle cx="14.5" cy="14.5" r="14" fill="white" stroke="#C81059"/>
<path d="M21.1318 16.4533C21.1318 16.4533 22.5062 17.8107 22.8462 18.4389C22.8528 18.4479 22.858 18.458 22.8615 18.4686C23.0001 18.7007 23.0341 18.8826 22.9661 19.0169C22.8513 19.2387 22.4629 19.3501 22.3311 19.3594H19.9018C19.7327 19.3594 19.3808 19.3152 18.9524 19.0194C18.6251 18.7908 18.2996 18.4142 17.9842 18.0462C17.5133 17.4996 17.1062 17.0253 16.6939 17.0253C16.6419 17.0252 16.5901 17.0338 16.5409 17.0508C16.229 17.1494 15.8329 17.594 15.8329 18.778C15.8329 19.1486 15.5405 19.3594 15.3356 19.3594H14.223C13.8439 19.3594 11.8702 19.2268 10.12 17.3815C7.97548 15.1222 6.04938 10.59 6.03068 10.55C5.91083 10.2568 6.16243 10.097 6.43443 10.097H8.88753C9.21648 10.097 9.32358 10.2959 9.39838 10.4744C9.48508 10.6792 9.80638 11.4986 10.3334 12.4192C11.1868 13.9169 11.7112 14.5263 12.1303 14.5263C12.209 14.5265 12.2864 14.506 12.3547 14.4668C12.9021 14.1659 12.8001 12.2109 12.7746 11.808C12.7746 11.7298 12.7737 10.9351 12.4932 10.5509C12.2926 10.2755 11.9509 10.1684 11.7444 10.1293C11.7996 10.0494 11.9169 9.92695 12.0674 9.8547C12.4422 9.6677 13.1197 9.6405 13.792 9.6405H14.1652C14.8945 9.6507 15.0832 9.69745 15.3484 9.7646C15.8822 9.8921 15.8924 10.2381 15.8456 11.4162C15.832 11.7528 15.8176 12.1319 15.8176 12.5781C15.8176 12.6733 15.8133 12.7796 15.8133 12.8875C15.7972 13.4919 15.7759 14.1727 16.2026 14.4524C16.258 14.4868 16.3219 14.5051 16.3871 14.5051C16.535 14.5051 16.9778 14.5051 18.1789 12.4438C18.7059 11.5335 19.1139 10.4599 19.1419 10.3792C19.1657 10.3341 19.2371 10.2075 19.3238 10.1565C19.3855 10.1236 19.4546 10.1072 19.5244 10.1089H22.4102C22.7247 10.1089 22.938 10.1565 22.9797 10.2755C23.0494 10.4684 22.9661 11.0575 21.6486 12.8391C21.4267 13.1357 21.2321 13.3924 21.0612 13.6168C19.867 15.1842 19.867 15.2633 21.1318 16.4533V16.4533Z" fill="#C81059"/>
</svg>
