<svg width="29" height="29" viewBox="0 0 29 29" fill="none" xmlns="http://www.w3.org/2000/svg">
<circle cx="14.5" cy="14.5" r="14" fill="white" stroke="#C81059"/>
<path d="M18.8847 9.19287H10.1153C8.39477 9.19287 7 10.5876 7 12.3082V16.6919C7 18.4125 8.39477 19.8072 10.1153 19.8072H18.8847C20.6052 19.8072 22 18.4125 22 16.6919V12.3082C22 10.5876 20.6052 9.19287 18.8847 9.19287ZM16.7778 14.7133L12.6761 16.6696C12.5668 16.7217 12.4406 16.6421 12.4406 16.521V12.4862C12.4406 12.3634 12.5701 12.2838 12.6797 12.3393L16.7814 14.4178C16.9033 14.4796 16.9012 14.6545 16.7778 14.7133Z" fill="#C81059"/>
</svg>
